<svg
      width="151"
      height="85"
      viewBox="0 0 151 85"
      fill="none"
      xmlns="http://www.w3.org/2000/svg"
    >
      <path
        d="M11.0016 56.4196V71.3514H2.66634V36.4423H10.7288V49.9764H11.0186C11.6095 48.3628 12.5754 47.1014 13.9163 46.1923C15.2686 45.2832 16.922 44.8287 18.8766 44.8287C20.7175 44.8287 22.3197 45.2378 23.6834 46.056C25.047 46.8628 26.1038 48.0048 26.8538 49.4821C27.6152 50.9594 27.9902 52.6866 27.9788 54.6639V71.3514H19.6436V56.3003C19.655 54.8457 19.2913 53.7094 18.5527 52.8912C17.8141 52.073 16.7743 51.6639 15.4334 51.6639C14.5584 51.6639 13.7857 51.8571 13.1152 52.2435C12.4561 52.6185 11.9391 53.1582 11.5641 53.8628C11.2004 54.5673 11.0129 55.4196 11.0016 56.4196ZM40.5626 71.7946C38.8922 71.7946 37.4092 71.5162 36.1138 70.9594C34.8297 70.3912 33.8126 69.5389 33.0626 68.4025C32.324 67.2548 31.9547 65.8173 31.9547 64.09C31.9547 62.6355 32.2104 61.4082 32.7217 60.4082C33.2331 59.4082 33.9376 58.5957 34.8354 57.9707C35.7331 57.3457 36.7672 56.8741 37.9376 56.556C39.1081 56.2264 40.3581 56.0048 41.6876 55.8912C43.1763 55.7548 44.3751 55.6128 45.2842 55.465C46.1933 55.306 46.8524 55.0844 47.2615 54.8003C47.682 54.5048 47.8922 54.09 47.8922 53.556V53.4707C47.8922 52.5957 47.5911 51.9196 46.9888 51.4423C46.3865 50.965 45.574 50.7264 44.5513 50.7264C43.449 50.7264 42.5626 50.965 41.8922 51.4423C41.2217 51.9196 40.7956 52.5787 40.6138 53.4196L32.9263 53.1469C33.1536 51.556 33.7388 50.1355 34.682 48.8855C35.6365 47.6241 36.9433 46.6355 38.6024 45.9196C40.2729 45.1923 42.2786 44.8287 44.6195 44.8287C46.2899 44.8287 47.8297 45.0275 49.2388 45.4253C50.6479 45.8116 51.8751 46.3798 52.9206 47.1298C53.9661 47.8685 54.7729 48.7775 55.3411 49.8571C55.9206 50.9366 56.2104 52.1696 56.2104 53.556V71.3514H48.3695V67.7037H48.1649C47.699 68.59 47.1024 69.34 46.3751 69.9537C45.6592 70.5673 44.8126 71.0275 43.8354 71.3344C42.8695 71.6412 41.7786 71.7946 40.5626 71.7946ZM43.1365 66.34C44.0342 66.34 44.8411 66.1582 45.557 65.7946C46.2842 65.431 46.8638 64.931 47.2956 64.2946C47.7274 63.6469 47.9433 62.8969 47.9433 62.0446V59.556C47.7047 59.681 47.4149 59.7946 47.074 59.8969C46.7445 59.9991 46.3808 60.0957 45.9831 60.1866C45.5854 60.2775 45.1763 60.3571 44.7558 60.4253C44.3354 60.4935 43.932 60.556 43.5456 60.6128C42.7615 60.7378 42.0911 60.931 41.5342 61.1923C40.9888 61.4537 40.5683 61.7946 40.2729 62.215C39.9888 62.6241 39.8467 63.1128 39.8467 63.681C39.8467 64.5446 40.1536 65.2037 40.7672 65.6582C41.3922 66.1128 42.182 66.34 43.1365 66.34ZM61.307 71.3514V36.4423H69.6422V49.6525H69.8126C70.1536 48.8571 70.6365 48.09 71.2615 47.3514C71.8979 46.6128 72.7047 46.0105 73.682 45.5446C74.6706 45.0673 75.8524 44.8287 77.2274 44.8287C79.0456 44.8287 80.7445 45.306 82.324 46.2605C83.9149 47.215 85.199 48.6866 86.1763 50.6753C87.1536 52.6639 87.6422 55.198 87.6422 58.2775C87.6422 61.2435 87.1706 63.7264 86.2274 65.7264C85.2956 67.7264 84.0342 69.2264 82.4433 70.2264C80.8638 71.2264 79.1081 71.7264 77.1763 71.7264C75.8581 71.7264 74.7161 71.5105 73.7501 71.0787C72.7842 70.6469 71.9717 70.0787 71.3126 69.3741C70.6649 68.6696 70.1649 67.9139 69.8126 67.1071H69.557V71.3514H61.307ZM69.4717 58.2605C69.4717 59.6696 69.6592 60.8969 70.0342 61.9423C70.4206 62.9878 70.9717 63.8003 71.6876 64.3798C72.4149 64.948 73.2842 65.2321 74.2956 65.2321C75.3183 65.2321 76.1876 64.948 76.9036 64.3798C77.6195 63.8003 78.1592 62.9878 78.5229 61.9423C78.8979 60.8969 79.0854 59.6696 79.0854 58.2605C79.0854 56.8514 78.8979 55.6298 78.5229 54.5957C78.1592 53.5616 77.6195 52.7605 76.9036 52.1923C76.199 51.6241 75.3297 51.34 74.2956 51.34C73.2729 51.34 72.4036 51.6185 71.6876 52.1753C70.9717 52.7321 70.4206 53.5275 70.0342 54.5616C69.6592 55.5957 69.4717 56.8287 69.4717 58.2605ZM92.0101 71.3514V45.1696H100.345V71.3514H92.0101ZM96.1862 42.1185C95.0158 42.1185 94.0101 41.7321 93.1692 40.9594C92.3283 40.1753 91.9078 39.2321 91.9078 38.1298C91.9078 37.0389 92.3283 36.1071 93.1692 35.3344C94.0101 34.5503 95.0158 34.1582 96.1862 34.1582C97.368 34.1582 98.3737 34.5503 99.2033 35.3344C100.044 36.1071 100.465 37.0389 100.465 38.1298C100.465 39.2321 100.044 40.1753 99.2033 40.9594C98.3737 41.7321 97.368 42.1185 96.1862 42.1185ZM120.429 45.1696V51.306H103.912V45.1696H120.429ZM107.372 38.8969H115.708V63.1185C115.708 63.6298 115.787 64.0446 115.946 64.3628C116.117 64.6696 116.361 64.8912 116.679 65.0275C116.997 65.1525 117.378 65.215 117.821 65.215C118.139 65.215 118.475 65.1866 118.827 65.1298C119.19 65.0616 119.463 65.0048 119.645 64.9594L120.906 70.9764C120.509 71.09 119.946 71.2321 119.219 71.4025C118.503 71.573 117.645 71.681 116.645 71.7264C114.69 71.8173 113.014 71.59 111.617 71.0446C110.23 70.4878 109.168 69.6241 108.429 68.4537C107.702 67.2832 107.35 65.8116 107.372 64.0389V38.8969ZM147.212 53.1639L139.558 53.3685C139.479 52.823 139.263 52.34 138.911 51.9196C138.558 51.4878 138.098 51.1525 137.53 50.9139C136.973 50.6639 136.325 50.5389 135.587 50.5389C134.621 50.5389 133.797 50.7321 133.115 51.1185C132.445 51.5048 132.115 52.0275 132.127 52.6866C132.115 53.198 132.32 53.6412 132.74 54.0162C133.172 54.3912 133.939 54.6923 135.041 54.9196L140.087 55.8741C142.7 56.3741 144.644 57.2037 145.916 58.3628C147.2 59.5219 147.848 61.056 147.86 62.965C147.848 64.7605 147.314 66.323 146.257 67.6525C145.212 68.9821 143.78 70.0162 141.962 70.7548C140.144 71.4821 138.064 71.8457 135.723 71.8457C131.985 71.8457 129.036 71.0787 126.877 69.5446C124.729 67.9991 123.502 65.931 123.195 63.34L131.428 63.1355C131.61 64.09 132.081 64.8173 132.842 65.3173C133.604 65.8173 134.575 66.0673 135.757 66.0673C136.825 66.0673 137.695 65.8685 138.365 65.4707C139.036 65.073 139.377 64.5446 139.388 63.8855C139.377 63.2946 139.115 62.823 138.604 62.4707C138.092 62.1071 137.291 61.823 136.2 61.6185L131.632 60.7491C129.007 60.2719 127.053 59.3912 125.769 58.1071C124.485 56.8116 123.848 55.1639 123.86 53.1639C123.848 51.4139 124.314 49.9196 125.257 48.681C126.2 47.431 127.541 46.4764 129.28 45.8173C131.019 45.1582 133.07 44.8287 135.433 44.8287C138.979 44.8287 141.774 45.573 143.82 47.0616C145.865 48.5389 146.996 50.573 147.212 53.1639Z"
        fill="white"
      />
      <rect
        x="0.524292"
        y="0.85141"
        width="15"
        height="15"
        rx="3.5"
        fill="#18181B"
        stroke="#27272A"
      />
      <rect
        x="20.5243"
        y="0.85141"
        width="15"
        height="15"
        rx="3.5"
        fill="#4C1D95"
        stroke="#6D28D9"
      />
      <rect
        x="40.5243"
        y="0.85141"
        width="15"
        height="15"
        rx="3.5"
        fill="#5B21B6"
        stroke="#7C3AED"
      />
      <rect
        x="60.5243"
        y="0.85141"
        width="15"
        height="15"
        rx="3.5"
        fill="#6D28D9"
        stroke="#8B5CF6"
      />
      <rect
        x="80.5243"
        y="0.85141"
        width="15"
        height="15"
        rx="3.5"
        fill="#7C3AED"
        stroke="#A78BFA"
      />
      <rect
        x="100.524"
        y="0.85141"
        width="15"
        height="15"
        rx="3.5"
        fill="#8B5CF6"
        stroke="#C4B5FD"
      />
    </svg>